<svg  xmlns="http://www.w3.org/2000/svg" version="1.1" xlink="http://www.w3.org/1999/xlink" xmlns:svgjs="http://svgjs.com/svgjs" width="100%" height="100%" viewBox="3.1250038146972656 3.125000476837158 93.75 93.75">
   <g fill="#bd9156">
      <path d="M93.75 87.781v-1.844a4.702 4.702 0 0 0-3.125-4.406V57.812a15.633 15.633 0 0 0-2.555-8.547 15.61 15.61 0 0 0-6.82-5.75V10.937c0-4.312-3.5-7.812-7.813-7.812h-62.5a7.815 7.815 0 0 0-7.812 7.812v62.5c0 4.313 3.5 7.813 7.813 7.813h45.39c-.003.09-.011.18-.03.265a4.694 4.694 0 0 0-3.173 4.422v1.844A4.702 4.702 0 0 0 50 92.187v3.125c.004.863.7 1.559 1.563 1.563h43.75a1.567 1.567 0 0 0 1.562-1.563v-3.125a4.702 4.702 0 0 0-3.125-4.406zM87.5 57.812V81.25H59.469c.984-11.516 12.391-15.531 12.906-15.703a1.563 1.563 0 0 0-.5-3.047 10.373 10.373 0 0 1-6.703-2.672 1.638 1.638 0 0 0-1.422-.422l-5.875 1.172a1.549 1.549 0 0 1-1.563-.594l-1.765-2.375a1.542 1.542 0 0 1 .125-2.046l13.484-10.578c.375-.301.594-.754.594-1.235v-6.047a6.255 6.255 0 0 1 4.687 6.047c.004.863.7 1.559 1.563 1.563 6.898.007 12.492 5.601 12.5 12.5zm-35.531 1.563a.38.38 0 0 1 .063.109l1.78 2.375a4.69 4.69 0 0 0 2.438 1.672v8.344h-12.5v-12.5zm-8.219-18.75v-12.5h12.5v12.5zm20.906 3.125l-5.281 4.156V43.75zM59.375 25V12.5h12.5V25zM10.937 78.125a4.701 4.701 0 0 1-4.688-4.688v-62.5a4.701 4.701 0 0 1 4.688-4.687h62.5a4.701 4.701 0 0 1 4.688 4.687v31.578a14.57 14.57 0 0 0-1.688-.266 9.16 9.16 0 0 0-1.438-3.609V10.937a1.567 1.567 0 0 0-1.562-1.563h-62.5c-.863.004-1.559.7-1.563 1.563v62.5c.004.863.7 1.559 1.563 1.562h46.875a18.709 18.709 0 0 0-1.016 3.125zM28.125 25V12.5h12.5V25zm12.5 18.75v12.5h-12.5v-12.5zM12.5 40.625v-12.5H25v12.5zM25 59.375v12.5H12.5v-12.5zm31.25 26.562c.004-.864.7-1.56 1.563-1.563h31.25c.863.004 1.558.7 1.562 1.563v1.562H56.25zm37.5 7.812H53.125v-1.562c.004-.864.7-1.56 1.563-1.563h37.5c.863.004 1.558.7 1.562 1.563z"></path>
   </g>
</svg>